<svg width="346" height="106" viewBox="0 0 346 106" fill="none" xmlns="http://www.w3.org/2000/svg">
<g clip-path="url(#clip0_649_6692)">
<mask id="mask0_649_6692" style="mask-type:luminance" maskUnits="userSpaceOnUse" x="0" y="0" width="124" height="106">
<path d="M123.791 0H0V106H123.791V0Z" fill="white"/>
</mask>
<g mask="url(#mask0_649_6692)">
<path d="M107.782 11.2888C107.682 11.3016 107.025 11.1907 105.808 10.9463C101.71 10.1247 97.3749 10.0025 92.7937 10.5667C88.9808 11.0443 85.6528 11.7067 82.797 12.5766C78.5123 13.8757 74.7495 15.3582 71.5081 17.0482C68.2046 18.7638 65.0751 20.6627 62.1314 22.745C60.6035 23.8239 59.0769 24.9751 57.5489 26.1762C56.8913 26.6907 56.1461 27.3034 55.3016 27.9899C54.7806 28.4191 53.9476 29.0929 52.8053 30.048C51.2397 31.3471 49.9736 32.3762 49.0297 33.1593C46.8688 34.9234 44.286 36.8223 41.2803 38.8448C38.4734 40.7309 35.531 42.3372 32.475 43.6477C28.4392 45.3747 24.3286 46.2941 20.1431 46.4164C18.441 46.4647 16.5907 46.3186 14.5678 45.9631C11.3391 45.4116 8.53201 44.2475 6.16089 42.4951C5.09331 41.7104 4.07462 40.6572 3.10632 39.3337C3.06891 39.2727 3.04445 39.1987 3.06891 39.1377C3.14373 38.8321 3.26747 38.488 3.4545 38.0959C5.30481 34.1756 7.61406 30.5612 10.3463 27.2522C12.8427 24.2375 15.9102 21.2242 19.5733 18.2222C23.8336 14.7186 28.5773 11.6669 33.8043 9.07006C38.9207 6.52153 44.1867 4.50035 49.6012 2.99228C55.1131 1.46288 60.6652 0.507725 66.2537 0.115426C68.9111 -0.06793 71.7669 -0.0309744 74.8476 0.226293C77.4188 0.435234 80.2618 0.81474 83.3421 1.35344C87.155 2.02717 90.8686 3.00791 94.4828 4.29426C98.1963 5.61756 101.487 7.17393 104.367 8.93787C105.113 9.39129 105.684 9.77077 106.081 10.0522C106.95 10.6776 107.508 11.0685 107.782 11.2163C107.806 11.2291 107.806 11.2533 107.795 11.2774C107.807 11.2774 107.795 11.2902 107.782 11.2902V11.2888Z" fill="#5FC6F0"/>
<path d="M123.666 38.1214C123.666 38.1455 123.642 38.1697 123.616 38.1697C123.603 38.1697 123.579 38.157 123.579 38.1455C123.181 37.3735 122.76 36.7 122.312 36.1358C121.827 35.5229 121.269 34.9603 120.623 34.4444C118.736 32.9489 116.612 31.9697 114.239 31.5162C112.016 31.087 109.645 31.1367 107.123 31.6385C103.497 32.3733 99.7967 33.8687 96.0326 36.0986C92.7797 38.0347 89.7855 40.1909 87.0419 42.593C84.8319 44.5287 82.609 46.5871 80.3728 48.7687C78.4982 50.5939 76.3615 52.7628 73.953 55.2745C71.8424 57.4676 68.7617 60.6286 64.6886 64.7692C62.4284 67.0604 60.2055 69.1184 58.007 70.9322C55.548 72.9661 53.0762 74.7429 50.6172 76.2367C44.2218 80.1326 37.2925 82.2533 29.8165 82.583C27.2339 82.6939 24.7247 82.4979 22.2787 81.9819C19.7076 81.4431 17.348 80.5974 15.1998 79.4206C9.15258 76.1373 4.86783 71.2847 2.33412 64.8898C-0.460014 57.8087 -0.746335 50.6036 1.4766 43.2893C1.48955 43.2525 1.52696 43.2283 1.57588 43.2411C1.58883 43.2411 1.60034 43.2538 1.61329 43.2652C3.73696 46.1562 6.55554 48.1533 10.0461 49.269C13.2992 50.298 16.7019 50.7759 20.2414 50.7018C23.5938 50.6281 26.972 50.0652 30.3878 48.999C32.8092 48.2387 35.2307 47.2465 37.6521 46.0101C39.8248 44.907 42.0606 43.5724 44.3714 42.016C46.308 40.7039 48.4316 39.1491 50.7179 37.3481C51.6489 36.6133 52.6803 35.7803 53.8098 34.8609C54.5925 34.2112 55.6097 33.3654 56.8775 32.325C57.7349 31.6143 59.7578 30.0337 62.9375 27.5961C69.221 22.7933 76.1142 19.2896 83.6391 17.0709C87.862 15.8215 91.9596 15.098 95.9465 14.8777C100.218 14.6446 104.329 15.0127 108.291 15.9679C109.583 16.2749 110.924 16.7525 112.314 17.3892C114.264 18.2833 115.99 19.4844 117.505 20.991C118.934 22.4252 120.126 24.0782 121.094 25.99C122.013 27.8036 122.695 29.7637 123.142 31.8716C123.553 33.8928 123.738 35.9877 123.665 38.1198L123.666 38.1214Z" fill="#0854CE"/>
<path d="M116.431 104.818C112.785 102.64 109.577 100.212 106.499 97.3014C103.692 94.6419 100.997 91.7268 98.4019 88.5288C96.5758 86.2744 90.7229 77.3936 89.32 74.9448C89.2956 74.9076 89.2454 74.8962 89.2078 74.9077H89.1949C85.792 77.3453 70.8602 84.7976 66.6607 86.3938C64.6864 87.2154 62.6622 87.9261 60.5875 88.5373C58.5386 89.1384 56.4639 89.6403 54.3661 90.0324C46.939 91.4169 39.5624 91.2577 32.2359 89.579C29.6533 88.9907 27.0692 88.0967 24.4621 86.8954C24.4491 86.8954 24.4376 86.8713 24.4376 86.8586C24.4247 86.8586 24.4506 86.8586 24.4621 86.8586C25.9023 87.0305 27.2188 87.1528 28.436 87.2382C29.9511 87.3491 31.5784 87.2992 33.3166 87.1159C34.8316 86.9568 36.4702 86.6753 38.2471 86.2829C43.9102 85.0334 49.1761 82.8035 54.0436 79.6052C56.9126 77.7191 59.5815 75.6839 62.029 73.5036C63.619 72.0949 65.2952 70.5016 67.0707 68.7133C68.4488 67.3291 70.2243 65.4913 72.3984 63.187C74.3235 61.1417 76.2602 59.1319 78.1853 57.1349C80.1966 55.0641 82.0111 53.2148 83.6252 51.6085C85.2153 50.028 86.7174 48.6196 88.146 47.3574C89.7733 45.9233 91.3746 44.637 92.9402 43.4857C94.6537 42.2234 96.3804 41.109 98.1067 40.1524C99.9572 39.1106 101.832 38.2294 103.745 37.4929C105.074 36.9786 106.341 36.5862 107.545 36.3289C108.849 36.0347 110.103 35.8869 111.296 35.8755C112.575 35.8628 113.817 36.0105 115.01 36.3161C116.276 36.6345 117.493 37.1491 118.686 37.8226C119.381 38.2264 120.064 38.8034 120.735 39.5385C121.045 39.8937 121.344 40.262 121.617 40.6413C121.89 41.0336 122.126 41.4133 122.325 41.8053C123.542 44.1947 124.001 46.7674 123.703 49.512C123.566 50.7501 123.318 52.0478 122.958 53.421C122.312 55.8841 121.679 57.9666 121.033 59.6691C119.182 64.5829 118.002 67.7554 117.493 69.1895C116.3 72.5098 115.369 75.9895 114.686 79.6167C113.991 83.3407 113.892 87.1273 114.375 90.9991C114.984 95.8758 116.164 100.371 117.928 104.489C118.181 105.082 118.623 105.999 118.598 105.999" fill="#11CE00"/>
</g>
<mask id="mask1_649_6692" style="mask-type:luminance" maskUnits="userSpaceOnUse" x="153" y="16" width="193" height="74">
<path d="M346 16.3076H153.191V89.9737H346V16.3076Z" fill="white"/>
</mask>
<g mask="url(#mask1_649_6692)">
<path d="M329.562 38.1274V89.9976H345.132V38.1274C342.884 39.5553 340.213 40.3851 337.344 40.3851C334.475 40.3851 331.804 39.5553 329.562 38.1274Z" fill="#0854CE"/>
<path d="M337.344 34.688C342.124 34.688 346 30.859 346 26.1357C346 21.4123 342.124 17.5833 337.344 17.5833C332.563 17.5833 328.686 21.4123 328.686 26.1357C328.686 30.859 332.563 34.688 337.344 34.688Z" fill="#0854CE"/>
<path d="M224.684 26.4753C242.092 26.4753 253.426 36.2023 253.426 56.901C253.426 61.3109 251.368 63.4632 246.783 63.4632H210.481C211.286 73.0776 217.921 77.4872 227.425 77.4872C232.58 77.4872 237.727 76.6927 244.484 74.6601L250.55 72.74L252.607 84.5063L246.541 86.4267C238.639 88.9163 232.914 90.0487 226.272 90.0487C207.498 90.0487 195.018 79.5269 195.018 58.4907C195.025 36.3148 208.765 26.4753 224.684 26.4753ZM224.222 37.7848C215.977 37.7848 210.937 43.5522 210.367 52.829H238.076C238.076 44.5717 233.954 37.7848 224.222 37.7848Z" fill="#0854CE"/>
<path d="M300.934 82.7296C299.56 87.1395 294.982 89.9666 289.372 89.9666C283.648 89.9666 279.64 87.477 278.038 82.7296L259.143 26.6255H270.2C273.759 26.6255 276.892 28.9394 277.903 32.3154L289.828 72.2078L302.28 32.2239C303.319 28.8972 306.43 26.6255 309.955 26.6255H320.855L300.934 82.7296Z" fill="#0854CE"/>
<path d="M185.691 27.446C184.808 27.4531 183.961 27.4671 183.128 27.4882C166.433 28.4588 153.191 42.1383 153.191 58.8775V89.9854H168.761V85.9134V58.8775C168.761 49.1366 176.521 40.8093 186.268 40.352C186.645 40.3451 187.03 40.338 187.414 40.338C187.87 40.3308 188.333 40.3308 188.795 40.3308V27.657C187.777 27.5375 186.738 27.4671 185.691 27.446Z" fill="#0854CE"/>
</g>
</g>
<defs>
<clipPath id="clip0_649_6692">
<rect width="346" height="106" fill="white"/>
</clipPath>
</defs>
</svg>
